{
	"asset":{
		"generator":"Khronos glTF Blender I/O v4.2.70",
		"version":"2.0"
	},
	"scene":0,
	"scenes":[
		{
			"name":"Scene",
			"nodes":[
				0
			]
		}
	],
	"nodes":[
		{
			"mesh":0,
			"name":"grass1"
		}
	],
	"meshes":[
		{
			"name":"Plane.001",
			"primitives":[
				{
					"attributes":{
						"POSITION":0,
						"NORMAL":1,
						"TEXCOORD_0":2
					},
					"indices":3
				}
			]
		}
	],
	"accessors":[
		{
			"bufferView":0,
			"componentType":5126,
			"count":7,
			"max":[
				0.14754754304885864,
				1.9673545360565186,
				0
			],
			"min":[
				-0.16641458868980408,
				0,
				-9.73658771385999e-08
			],
			"type":"VEC3"
		},
		{
			"bufferView":1,
			"componentType":5126,
			"count":7,
			"type":"VEC3"
		},
		{
			"bufferView":2,
			"componentType":5126,
			"count":7,
			"type":"VEC2"
		},
		{
			"bufferView":3,
			"componentType":5123,
			"count":15,
			"type":"SCALAR"
		}
	],
	"bufferViews":[
		{
			"buffer":0,
			"byteLength":84,
			"byteOffset":0,
			"target":34962
		},
		{
			"buffer":0,
			"byteLength":84,
			"byteOffset":84,
			"target":34962
		},
		{
			"buffer":0,
			"byteLength":56,
			"byteOffset":168,
			"target":34962
		},
		{
			"buffer":0,
			"byteLength":30,
			"byteOffset":224,
			"target":34963
		}
	],
	"buffers":[
		{
			"byteLength":256,
			"uri":"grass_lod_1.bin"
		}
	]
}
